<svg width="24" height="32" viewBox="0 0 24 32" fill="none" xmlns="http://www.w3.org/2000/svg">
<g id="Just Logo">
<path id="Fill 1" fill-rule="evenodd" clip-rule="evenodd" d="M15.0729 1C15.7584 1.78043 15.9847 2.89636 15.7876 3.9029C15.5761 5.03342 14.9488 6.03266 14.2122 6.89332C13.6214 7.58622 12.943 8.19889 12.2356 8.7678C11.4114 9.43153 10.6018 10.1463 10.084 11.0799C9.64635 11.8385 9.54424 12.772 9.84328 13.5962C10.332 15.0112 11.4698 16.0615 12.0897 17.3963C11.4041 16.7909 10.7331 16.1636 10.1059 15.4999C9.44942 14.7997 8.82945 14.0557 8.42101 13.1805C8.14385 12.5678 8.01985 11.853 8.23137 11.2039C8.44289 10.5402 8.91698 10.0077 9.39107 9.51176C10.7112 8.1916 12.3378 7.22153 13.6287 5.87949C14.3436 5.14283 14.9343 4.26029 15.1384 3.24646C15.3063 2.5025 15.226 1.73666 15.0729 1Z" fill="white"/>
<path id="Stroke 2" fill-rule="evenodd" clip-rule="evenodd" d="M15.0729 1C15.7584 1.78043 15.9847 2.89636 15.7876 3.9029C15.5761 5.03342 14.9488 6.03266 14.2122 6.89332C13.6214 7.58622 12.943 8.19889 12.2356 8.7678C11.4114 9.43153 10.6018 10.1463 10.084 11.0799C9.64635 11.8385 9.54424 12.772 9.84328 13.5962C10.332 15.0112 11.4698 16.0615 12.0897 17.3963C11.4041 16.7909 10.7331 16.1636 10.1059 15.4999C9.44942 14.7997 8.82945 14.0557 8.42101 13.1805C8.14385 12.5678 8.01985 11.853 8.23137 11.2039C8.44289 10.5402 8.91698 10.0077 9.39107 9.51176C10.7112 8.1916 12.3378 7.22153 13.6287 5.87949C14.3436 5.14283 14.9343 4.26029 15.1384 3.24646C15.3063 2.5025 15.226 1.73666 15.0729 1Z" stroke="white" stroke-width="0.094"/>
<path id="Fill 4" fill-rule="evenodd" clip-rule="evenodd" d="M13.9933 9.3075C15.4083 8.2645 17.0639 7.60077 18.7415 7.11938C17.4141 7.96546 16.0283 8.73859 14.8831 9.82535C14.4674 10.2265 14.0735 10.686 13.8911 11.2476C13.7526 11.6634 13.811 12.1229 13.9788 12.5167C14.2851 13.2169 14.8029 13.7858 15.1968 14.4277C15.5322 14.9747 15.5906 15.6749 15.3354 16.2657C14.9487 17.1336 14.1902 17.7682 13.4025 18.2715C13.3004 18.3298 13.213 18.4392 13.0888 18.4538C13.6141 17.9797 14.0225 17.3087 14.0078 16.5866C13.9933 16.0469 13.6943 15.5728 13.3441 15.1862C12.622 14.3256 12.0167 13.2315 12.1407 12.0718C12.2648 10.9121 13.0961 9.97852 13.9933 9.3075Z" fill="white"/>
<path id="Stroke 5" fill-rule="evenodd" clip-rule="evenodd" d="M13.9933 9.3075C15.4083 8.2645 17.0639 7.60077 18.7415 7.11938C17.4141 7.96546 16.0283 8.73859 14.8831 9.82535C14.4674 10.2265 14.0735 10.686 13.8911 11.2476C13.7526 11.6634 13.811 12.1229 13.9788 12.5167C14.2851 13.2169 14.8029 13.7858 15.1968 14.4277C15.5322 14.9747 15.5906 15.6749 15.3354 16.2657C14.9487 17.1336 14.1902 17.7682 13.4025 18.2715C13.3004 18.3298 13.213 18.4392 13.0888 18.4538C13.6141 17.9797 14.0225 17.3087 14.0078 16.5866C13.9933 16.0469 13.6943 15.5728 13.3441 15.1862C12.622 14.3256 12.0167 13.2315 12.1407 12.0718C12.2648 10.9121 13.0961 9.97852 13.9933 9.3075Z" stroke="white" stroke-width="0.094"/>
<path id="Fill 6" fill-rule="evenodd" clip-rule="evenodd" d="M19.0116 17.7391C19.3179 17.3671 19.8065 17.2723 20.2516 17.214C21.0246 17.1118 21.8487 17.3088 22.4322 17.8412C22.9138 18.2715 23.1836 18.9426 23.0814 19.5917C22.972 20.343 22.4687 20.9702 21.8999 21.4443C20.8715 22.2685 19.6024 22.7499 18.3333 23.0709C18.4062 22.9905 18.4863 22.9176 18.5812 22.8593C19.5439 22.3414 20.4994 21.7361 21.207 20.89C21.6374 20.3648 21.9728 19.6792 21.8342 18.9863C21.6884 18.184 20.908 17.6005 20.1129 17.5568C19.7336 17.5203 19.3763 17.6662 19.0116 17.7391Z" fill="white"/>
<path id="Stroke 7" fill-rule="evenodd" clip-rule="evenodd" d="M19.0116 17.7391C19.3179 17.3671 19.8065 17.2723 20.2516 17.214C21.0246 17.1118 21.8487 17.3088 22.4322 17.8412C22.9138 18.2715 23.1836 18.9426 23.0814 19.5917C22.972 20.343 22.4687 20.9702 21.8999 21.4443C20.8715 22.2685 19.6024 22.7499 18.3333 23.0709C18.4062 22.9905 18.4863 22.9176 18.5812 22.8593C19.5439 22.3414 20.4994 21.7361 21.207 20.89C21.6374 20.3648 21.9728 19.6792 21.8342 18.9863C21.6884 18.184 20.908 17.6005 20.1129 17.5568C19.7336 17.5203 19.3763 17.6662 19.0116 17.7391Z" stroke="white" stroke-width="0.094"/>
<path id="Fill 8" fill-rule="evenodd" clip-rule="evenodd" d="M4.35113 18.4028C5.69317 17.8266 7.15184 17.4546 8.61795 17.4765C7.76458 17.7245 6.88934 17.936 6.08703 18.3153C5.89739 18.4174 5.67858 18.5122 5.56918 18.7091C5.51075 18.8623 5.67129 18.9644 5.78799 19.0155C6.28396 19.2197 6.83099 19.2489 7.36343 19.2999C9.23062 19.4239 11.1051 19.351 12.965 19.2343C14.8029 19.1176 16.6264 18.8696 18.4426 18.5779C18.0414 18.7675 17.633 18.9571 17.2611 19.1978C17.0713 19.3291 16.838 19.3656 16.6264 19.4166C14.3946 19.9126 12.1043 20.0658 9.8287 20.1022C8.94616 20.1095 8.07092 20.0949 7.19567 20.0366C6.21832 19.9709 5.23367 19.898 4.27819 19.6427C4.00103 19.5625 3.70928 19.475 3.49047 19.278C3.38106 19.1905 3.38106 19.0155 3.47588 18.9134C3.71657 18.6654 4.05209 18.5487 4.35113 18.4028Z" fill="white"/>
<path id="Stroke 9" fill-rule="evenodd" clip-rule="evenodd" d="M4.35113 18.4028C5.69317 17.8266 7.15184 17.4546 8.61795 17.4765C7.76458 17.7245 6.88934 17.936 6.08703 18.3153C5.89739 18.4174 5.67858 18.5122 5.56918 18.7091C5.51075 18.8623 5.67129 18.9644 5.78799 19.0155C6.28396 19.2197 6.83099 19.2489 7.36343 19.2999C9.23062 19.4239 11.1051 19.351 12.965 19.2343C14.8029 19.1176 16.6264 18.8696 18.4426 18.5779C18.0414 18.7675 17.633 18.9571 17.2611 19.1978C17.0713 19.3291 16.838 19.3656 16.6264 19.4166C14.3946 19.9126 12.1043 20.0658 9.8287 20.1022C8.94616 20.1095 8.07092 20.0949 7.19567 20.0366C6.21832 19.9709 5.23367 19.898 4.27819 19.6427C4.00103 19.5625 3.70928 19.475 3.49047 19.278C3.38106 19.1905 3.38106 19.0155 3.47588 18.9134C3.71657 18.6654 4.05209 18.5487 4.35113 18.4028Z" stroke="white" stroke-width="0.094"/>
<path id="Fill 10" fill-rule="evenodd" clip-rule="evenodd" d="M6.07255 21.5172C6.45183 21.2181 6.90404 21.0504 7.35625 20.8899C7.21037 21.0649 7.00615 21.2327 6.99156 21.4734C6.98427 21.6266 7.10826 21.7433 7.23225 21.8162C7.47295 21.9402 7.74281 21.984 8.01268 22.0204C9.41307 22.1663 10.8281 22.2465 12.243 22.1517C13.5339 22.0861 14.8178 21.8745 16.0942 21.6484C16.4441 21.9767 16.86 22.2028 17.2976 22.3997C15.7585 22.8519 14.1759 23.1145 12.5858 23.2384C11.0833 23.3406 9.55895 23.3333 8.06374 23.0925C7.47295 22.9831 6.86757 22.8592 6.32783 22.582C6.10902 22.4653 5.86104 22.3122 5.79539 22.0569C5.75163 21.8381 5.91209 21.6411 6.07255 21.5172Z" fill="white"/>
<path id="Stroke 11" fill-rule="evenodd" clip-rule="evenodd" d="M6.07255 21.5172C6.45183 21.2181 6.90404 21.0504 7.35625 20.8899C7.21037 21.0649 7.00615 21.2327 6.99156 21.4734C6.98427 21.6266 7.10826 21.7433 7.23225 21.8162C7.47295 21.9402 7.74281 21.984 8.01268 22.0204C9.41307 22.1663 10.8281 22.2465 12.243 22.1517C13.5339 22.0861 14.8178 21.8745 16.0942 21.6484C16.4441 21.9767 16.86 22.2028 17.2976 22.3997C15.7585 22.8519 14.1759 23.1145 12.5858 23.2384C11.0833 23.3406 9.55895 23.3333 8.06374 23.0925C7.47295 22.9831 6.86757 22.8592 6.32783 22.582C6.10902 22.4653 5.86104 22.3122 5.79539 22.0569C5.75163 21.8381 5.91209 21.6411 6.07255 21.5172Z" stroke="white" stroke-width="0.094"/>
<path id="Fill 12" fill-rule="evenodd" clip-rule="evenodd" d="M6.91853 24.6972C7.25405 24.4274 7.66979 24.2888 8.07823 24.1721C7.94695 24.296 7.71355 24.4492 7.81566 24.6607C8.01259 24.916 8.37728 24.9453 8.66902 25.0109C9.90166 25.1641 11.1489 25.2662 12.3815 25.1713C13.315 25.1131 14.2342 24.9453 15.1459 24.7849C15.671 25.0911 16.218 25.3536 16.7796 25.5872C15.919 25.9736 14.9926 26.2217 14.0664 26.3967C12.5054 26.6738 10.8936 26.7103 9.32546 26.4624C8.63256 26.3383 7.92507 26.1779 7.29781 25.835C7.05712 25.6966 6.80184 25.536 6.69972 25.2662C6.61949 25.0547 6.75078 24.8286 6.91853 24.6972Z" fill="white"/>
<path id="Stroke 13" fill-rule="evenodd" clip-rule="evenodd" d="M6.91853 24.6972C7.25405 24.4274 7.66979 24.2888 8.07823 24.1721C7.94695 24.296 7.71355 24.4492 7.81566 24.6607C8.01259 24.916 8.37728 24.9453 8.66902 25.0109C9.90166 25.1641 11.1489 25.2662 12.3815 25.1713C13.315 25.1131 14.2342 24.9453 15.1459 24.7849C15.671 25.0911 16.218 25.3536 16.7796 25.5872C15.919 25.9736 14.9926 26.2217 14.0664 26.3967C12.5054 26.6738 10.8936 26.7103 9.32546 26.4624C8.63256 26.3383 7.92507 26.1779 7.29781 25.835C7.05712 25.6966 6.80184 25.536 6.69972 25.2662C6.61949 25.0547 6.75078 24.8286 6.91853 24.6972Z" stroke="white" stroke-width="0.094"/>
<path id="Fill 14" fill-rule="evenodd" clip-rule="evenodd" d="M2.8705 26.7614C3.54152 26.5354 4.23442 26.353 4.94191 26.3311C5.22637 26.3238 5.51812 26.3383 5.7661 26.4842C4.92003 26.5354 4.07396 26.7468 3.31542 27.1334C3.14766 27.2283 2.95802 27.3377 2.89238 27.5346C2.89238 27.7606 3.14766 27.8335 3.31542 27.9065C4.373 28.3004 5.50353 28.4243 6.61217 28.5412C9.91622 28.8182 13.2421 28.7452 16.5462 28.4463C17.7934 28.3076 19.048 28.169 20.2587 27.8263C20.6452 27.6949 21.0828 27.5637 21.3381 27.2208C21.4914 27.0167 21.3892 26.7614 21.2361 26.5864C21.484 26.7249 21.8341 26.9001 21.7832 27.2355C21.6883 27.5855 21.3308 27.7679 21.0391 27.9357C20.1056 28.4098 19.0771 28.6506 18.0559 28.8619C15.0875 29.4454 12.046 29.5768 9.02639 29.4893C6.75075 29.409 4.47512 29.1902 2.22865 28.8037C1.8275 28.7088 1.37529 28.6286 1.08354 28.3149C0.893905 28.0961 1.06166 27.7898 1.244 27.6294C1.70351 27.2063 2.2943 26.973 2.8705 26.7614Z" fill="white"/>
<path id="Stroke 15" fill-rule="evenodd" clip-rule="evenodd" d="M2.8705 26.7614C3.54152 26.5354 4.23442 26.353 4.94191 26.3311C5.22637 26.3238 5.51812 26.3383 5.7661 26.4842C4.92003 26.5354 4.07396 26.7468 3.31542 27.1334C3.14766 27.2283 2.95802 27.3377 2.89238 27.5346C2.89238 27.7606 3.14766 27.8335 3.31542 27.9065C4.373 28.3004 5.50353 28.4243 6.61217 28.5412C9.91622 28.8182 13.2421 28.7452 16.5462 28.4463C17.7934 28.3076 19.048 28.169 20.2587 27.8263C20.6452 27.6949 21.0828 27.5637 21.3381 27.2208C21.4914 27.0167 21.3892 26.7614 21.2361 26.5864C21.484 26.7249 21.8341 26.9001 21.7832 27.2355C21.6883 27.5855 21.3308 27.7679 21.0391 27.9357C20.1056 28.4098 19.0771 28.6506 18.0559 28.8619C15.0875 29.4454 12.046 29.5768 9.02639 29.4893C6.75075 29.409 4.47512 29.1902 2.22865 28.8037C1.8275 28.7088 1.37529 28.6286 1.08354 28.3149C0.893905 28.0961 1.06166 27.7898 1.244 27.6294C1.70351 27.2063 2.2943 26.973 2.8705 26.7614Z" stroke="white" stroke-width="0.094"/>
<path id="Fill 16" fill-rule="evenodd" clip-rule="evenodd" d="M21.0464 29.2558C21.7832 29.0005 22.5707 28.7307 23.1178 28.1472C23.0231 28.7817 22.4761 29.2193 21.9363 29.5038C20.9005 30.0436 19.7409 30.2916 18.5885 30.4957C16.1523 30.8824 13.6797 30.9771 11.2072 30.9333C9.52237 30.8824 7.82294 30.8167 6.1672 30.4665C5.77341 30.3571 5.35037 30.2842 5.00757 30.0509C6.4809 30.2989 7.97611 30.401 9.47132 30.4592C11.9293 30.5322 14.3946 30.4375 16.838 30.131C18.2529 29.9342 19.6752 29.6934 21.0464 29.2558Z" fill="white"/>
<path id="Stroke 17" fill-rule="evenodd" clip-rule="evenodd" d="M21.0464 29.2558C21.7832 29.0005 22.5707 28.7307 23.1178 28.1472C23.0231 28.7817 22.4761 29.2193 21.9363 29.5038C20.9005 30.0436 19.7409 30.2916 18.5885 30.4957C16.1523 30.8824 13.6797 30.9771 11.2072 30.9333C9.52237 30.8824 7.82294 30.8167 6.1672 30.4665C5.77341 30.3571 5.35037 30.2842 5.00757 30.0509C6.4809 30.2989 7.97611 30.401 9.47132 30.4592C11.9293 30.5322 14.3946 30.4375 16.838 30.131C18.2529 29.9342 19.6752 29.6934 21.0464 29.2558Z" stroke="white" stroke-width="0.094"/>
</g>
</svg>
