<svg width="20" height="26" viewBox="0 0 20 26" fill="none" xmlns="http://www.w3.org/2000/svg">
<g id="Bag">
<path id="Vector" d="M1.82477 10.408C1.86576 9.80658 2.0976 9.24539 2.47413 8.83621C2.85067 8.42703 3.34426 8.19989 3.8566 8.20001H16.1434C16.6557 8.19989 17.1493 8.42703 17.5259 8.83621C17.9024 9.24539 18.1342 9.80658 18.1752 10.408L18.9935 22.408C19.016 22.7382 18.9802 23.0704 18.8883 23.3835C18.7965 23.6967 18.6506 23.984 18.4598 24.2275C18.2691 24.471 18.0376 24.6653 17.7799 24.7983C17.5222 24.9312 17.244 24.9999 16.9627 25H3.03735C2.75603 24.9999 2.47778 24.9312 2.22011 24.7983C1.96244 24.6653 1.73093 24.471 1.54016 24.2275C1.3494 23.984 1.2035 23.6967 1.11166 23.3835C1.01982 23.0704 0.984027 22.7382 1.00653 22.408L1.82477 10.408V10.408Z" stroke="black" stroke-width="2" stroke-linecap="round" stroke-linejoin="round"/>
<path id="Vector_2" d="M14.0758 11.8V5.8C14.0758 4.52696 13.6464 3.30606 12.882 2.40589C12.1177 1.50571 11.081 1 9.99996 1C8.91897 1 7.88225 1.50571 7.11787 2.40589C6.35349 3.30606 5.92407 4.52696 5.92407 5.8V11.8" stroke="black" stroke-width="2" stroke-linecap="round" stroke-linejoin="round"/>
</g>
</svg>
